<?xml version="1.0" encoding="UTF-8"?>
<svg width="400px" height="400px" viewBox="0 0 400 400" version="1.1" xmlns="http://www.w3.org/2000/svg" xmlns:xlink="http://www.w3.org/1999/xlink">
    <!-- Generator: Sketch 53.1 (72631) - https://sketchapp.com -->
    <title>logo</title>
    <desc>Created with Sketch.</desc>
    <defs>
        <linearGradient x1="50%" y1="0%" x2="50%" y2="100%" id="linearGradient-1">
            <stop stop-color="#13937E" offset="0%"></stop>
            <stop stop-color="#2B8D7C" offset="49.1765203%"></stop>
            <stop stop-color="#182B1C" offset="100%"></stop>
        </linearGradient>
    </defs>
    <g id="Page-1" stroke="none" stroke-width="1" fill="none" fill-rule="evenodd">
        <g id="logos" transform="translate(-70.000000, -50.000000)" fill="url(#linearGradient-1)">
            <path d="M269.995441,50 C159.544346,50 70,139.587229 70,250.095781 L70,250.095781 C70,263.40935 71.2399991,276.490308 73.6105856,289.174458 L73.6105856,289.174458 C75.5207312,297.384265 97.9865971,385.553022 177.875362,374.811859 L177.875362,374.811859 C204.635636,371.213227 220.614301,345.598632 220.614301,345.598632 L220.614301,345.598632 C220.614301,345.598632 198.964464,362.442417 177.305509,362.697834 L177.305509,362.697834 C128.298192,363.267959 90.687926,317.657925 95.1418933,248.066135 L95.1418933,248.066135 C101.369242,150.775371 187.407855,91.8882554 266.544414,91.8882554 L266.544414,91.8882554 C356.01126,91.8882554 421.19783,166.574686 421.19783,248.066135 L421.19783,248.066135 C421.19783,323.36374 388.365207,360.248575 388.365207,360.248575 L388.365207,360.248575 C388.365207,360.248575 444.475166,139.610034 230.602676,133.968073 L230.602676,133.968073 C323.347314,157.566705 351.680381,244.68187 313.208498,306.155074 L313.208498,306.155074 C317.7582,251.391106 282.919696,177.977195 209.135192,188.394527 L209.135192,188.394527 C145.690091,197.356899 120.320257,276.038769 140.834948,306.255416 L140.834948,306.255416 C160.118757,334.656784 196.106084,341.603193 225.742974,294.287343 L225.742974,294.287343 C203.11299,319.797035 161.349639,318.232611 161.919491,289.721779 L161.919491,289.721779 C163.378314,216.763968 273.610586,216.750285 273.610586,289.721779 L273.610586,289.721779 C273.610586,346.392246 228.204737,424.795895 164.878166,408.718358 L164.878166,408.718358 C219.739008,428.380844 303.106152,423.678449 352.154498,312.526796 L352.154498,312.526796 C353.57685,385.507412 321.669668,425.790194 278.324406,449.981756 L278.324406,449.981756 C384.918739,445.612315 470,357.808438 470,250.095781 L470,250.095781 C470,139.587229 380.455654,50 269.995441,50 Z" id="logo"></path>
        </g>
    </g>
</svg>